<?xml version="1.0" standalone="no"?>
<!DOCTYPE svg PUBLIC "-//W3C//DTD SVG 20010904//EN"
 "http://www.w3.org/TR/2001/REC-SVG-20010904/DTD/svg10.dtd">
<svg version="1.0" xmlns="http://www.w3.org/2000/svg"
 width="328.000000pt" height="327.000000pt" viewBox="0 0 328.000000 327.000000"
 preserveAspectRatio="xMidYMid meet">
<metadata>
Created by potrace 1.16, written by Peter Selinger 2001-2019
</metadata>
<g transform="translate(0.000000,327.000000) scale(0.100000,-0.100000)"
fill="#000000" stroke="none">
<path d="M1515 3233 c-263 -31 -445 -85 -635 -190 -196 -108 -412 -300 -543
-483 -116 -164 -216 -391 -257 -585 -106 -501 27 -1012 364 -1397 234 -268
576 -459 930 -520 161 -27 460 -22 601 11 565 131 1003 521 1184 1054 108 321
110 699 5 1015 -124 373 -387 691 -739 895 -255 147 -642 232 -910 200z m420
-143 c737 -154 1245 -825 1184 -1566 -16 -209 -57 -351 -154 -549 -175 -355
-491 -626 -871 -748 -152 -49 -276 -68 -446 -68 -161 0 -250 11 -388 48 -252
66 -472 194 -660 383 -215 216 -347 460 -412 764 -28 134 -31 406 -5 541 58
298 188 551 391 762 241 251 525 398 866 448 130 20 363 12 495 -15z"/>
<path d="M1261 1989 c-32 -10 -33 -11 -16 -30 17 -18 16 -25 -34 -164 -29 -80
-55 -163 -58 -184 -15 -114 152 -100 250 21 37 46 49 125 22 151 -31 31 -83
19 -138 -31 l-28 -27 26 68 c14 37 36 97 50 133 14 37 25 68 25 70 0 7 -65 2
-99 -7z"/>
<path d="M623 1963 c-49 -5 -51 -8 -23 -31 19 -17 19 -19 -29 -168 -58 -180
-63 -190 -96 -198 -56 -14 -21 -26 75 -26 100 0 126 10 75 30 -30 11 -30 8 -3
92 17 51 26 68 40 68 22 0 33 -24 48 -102 13 -68 35 -88 97 -88 46 0 65 15 33
25 -26 8 -37 30 -54 110 l-14 66 38 19 c117 60 100 176 -29 200 -53 10 -75 10
-158 3z m152 -48 c29 -28 30 -43 11 -90 -16 -36 -59 -65 -101 -65 -31 0 -31 8
-4 91 33 98 50 109 94 64z"/>
<path d="M1894 1958 c-3 -5 6 -12 20 -18 14 -5 26 -14 26 -19 0 -16 -119 -323
-131 -337 -6 -7 -20 -14 -31 -16 -12 -2 -23 -9 -26 -15 -3 -10 17 -13 77 -13
82 0 104 12 56 30 -14 5 -25 12 -25 14 0 8 92 271 100 285 11 20 18 -21 25
-144 8 -127 15 -175 26 -175 4 0 32 35 60 78 81 120 182 262 185 259 5 -5 -85
-289 -96 -302 -6 -7 -22 -16 -35 -19 -56 -14 -21 -26 75 -26 66 0 100 4 100
11 0 6 -9 13 -20 16 -27 7 -26 22 20 189 47 169 52 181 82 186 12 2 23 8 25
13 2 7 -25 10 -73 8 l-76 -2 -30 -48 c-17 -26 -58 -86 -91 -133 l-61 -84 -8
34 c-4 19 -10 80 -14 135 l-6 100 -75 0 c-41 0 -77 -3 -79 -7z"/>
<path d="M2508 1963 c-50 -4 -62 -17 -28 -28 11 -3 20 -12 20 -18 0 -7 -23
-84 -50 -172 -48 -151 -66 -185 -97 -185 -7 0 -13 -5 -13 -11 0 -8 46 -10 153
-8 147 4 156 5 212 34 169 86 190 307 36 368 -42 17 -158 27 -233 20z m177
-37 c59 -25 81 -105 53 -198 -14 -48 -76 -120 -122 -142 -44 -21 -112 -21
-120 -1 -5 13 85 322 101 348 7 12 51 8 88 -7z"/>
<path d="M985 1777 c-97 -55 -136 -195 -65 -235 34 -19 103 0 143 39 39 39 29
46 -22 17 -46 -26 -76 -18 -76 22 0 19 10 27 57 42 63 21 108 57 108 87 0 52
-76 67 -145 28z"/>
<path d="M1534 1315 c-14 -14 -22 -30 -18 -37 5 -8 12 -5 22 10 38 57 43 -6 8
-103 -35 -97 -7 -84 43 20 40 82 73 117 92 98 6 -6 1 -33 -11 -69 -12 -32 -19
-70 -18 -84 3 -23 6 -25 52 -22 27 1 55 7 62 13 8 7 13 6 16 -3 4 -10 11 -11
36 -1 18 6 32 7 32 2 0 -13 44 -11 58 3 9 9 12 9 12 0 0 -25 20 -11 36 26 13
28 18 33 21 19 3 -13 11 -17 23 -14 13 3 20 -2 24 -19 7 -26 43 -33 64 -12 9
9 12 9 12 0 0 -16 43 -15 58 0 9 9 15 10 20 2 4 -7 30 -12 59 -12 43 0 55 5
75 27 l23 26 3 -27 c3 -24 22 -42 22 -20 0 4 11 21 25 37 l24 30 -6 -37 c-5
-33 -3 -38 14 -38 20 0 43 18 43 33 0 5 -7 4 -15 -3 -22 -18 -26 -9 -15 30 14
49 -2 59 -39 23 l-30 -30 6 31 5 31 -26 -30 c-19 -23 -25 -26 -26 -13 0 10 -9
22 -20 28 -17 9 -25 6 -45 -14 -14 -14 -25 -34 -25 -46 0 -12 -7 -20 -16 -20
-14 0 -16 7 -11 40 6 50 -6 51 -30 3 -21 -43 -56 -53 -61 -16 -2 17 3 23 28
28 16 4 28 11 24 16 -3 5 -10 6 -17 2 -6 -3 -1 9 11 29 34 55 26 97 -14 70
-16 -10 -44 -68 -44 -91 0 -11 -5 -23 -10 -26 -6 -4 -8 -15 -5 -26 4 -12 1
-21 -9 -25 -26 -10 -35 4 -25 38 11 41 4 47 -21 20 -26 -27 -40 -28 -33 -2 7
28 -20 26 -40 -2 l-16 -23 6 23 c3 13 1 22 -6 22 -6 0 -14 -14 -18 -30 -9 -48
-63 -70 -63 -26 0 17 7 26 25 30 14 4 25 11 25 16 0 5 -8 6 -17 3 -13 -5 -10
2 10 26 15 18 27 41 27 52 0 26 -28 36 -47 17 -17 -18 -55 -126 -48 -138 6 -9
-23 -35 -31 -27 -3 3 -1 21 4 41 11 36 -3 64 -14 29 -10 -35 -29 -66 -43 -71
-11 -4 -12 5 -7 44 6 45 5 47 -9 30 -8 -11 -15 -33 -15 -48 0 -30 -24 -48 -41
-31 -7 7 -3 30 10 69 25 69 27 110 6 118 -25 9 -64 -11 -86 -46 l-21 -33 7 28
c6 28 -8 57 -27 57 -5 0 -20 -11 -34 -25z"/>
<path d="M905 1306 c-34 -34 -23 -61 40 -97 59 -33 70 -49 51 -74 -8 -12 -24
-16 -56 -13 -41 3 -45 6 -48 31 -4 34 -32 37 -32 3 0 -14 7 -31 15 -39 39 -39
138 -26 156 20 13 34 -2 57 -61 90 -70 39 -68 83 5 83 31 0 51 -25 36 -44 -9
-11 -9 -16 0 -21 14 -9 29 12 29 42 0 47 -94 60 -135 19z"/>
<path d="M1427 1316 c-8 -8 -19 -29 -26 -48 -27 -70 -31 -78 -41 -78 -7 0 -9
8 -5 20 9 28 -19 26 -41 -2 l-16 -23 5 23 c6 27 -9 29 -23 2 -14 -26 -23 -25
-35 3 -12 26 -44 25 -64 -4 -17 -24 -31 -24 -31 0 0 23 -18 31 -46 20 -15 -5
-27 -24 -37 -56 -24 -75 -29 -115 -14 -110 6 2 14 17 17 33 4 20 12 30 27 32
11 2 29 12 39 23 22 24 30 24 37 -1 8 -30 51 -26 73 8 l18 27 6 -24 c9 -38 27
-36 40 4 11 32 13 34 25 19 7 -10 19 -15 28 -11 10 4 17 -2 21 -19 8 -30 45
-33 71 -4 19 21 8 29 -12 9 -16 -16 -43 -4 -43 20 0 13 9 21 30 26 17 4 28 11
25 15 -3 5 -12 7 -19 4 -8 -3 -17 0 -21 6 -8 13 13 70 26 70 14 0 11 -18 -7
-48 l-16 -27 26 28 c43 46 27 106 -17 63z"/>
</g>
</svg>
